<svg width="25" height="26" viewBox="0 0 25 26" fill="none" xmlns="http://www.w3.org/2000/svg">
<g clip-path="url(#clip0_97_2885)">
<path d="M12.5 25.5C19.4036 25.5 25 19.9036 25 13C25 6.09644 19.4036 0.5 12.5 0.5C5.59644 0.5 0 6.09644 0 13C0 19.9036 5.59644 25.5 12.5 25.5Z" fill="#29A71A"/>
<path d="M18.0114 7.48903C16.7108 6.17554 14.9838 5.37001 13.1416 5.21776C11.2995 5.0655 9.4636 5.57654 7.96507 6.6587C6.46655 7.74085 5.40406 9.32288 4.96924 11.1194C4.53442 12.916 4.75591 14.8087 5.59375 16.4564L4.77131 20.4493C4.76277 20.489 4.76253 20.5301 4.7706 20.5699C4.77866 20.6098 4.79486 20.6475 4.81818 20.6808C4.85234 20.7313 4.90111 20.7702 4.95796 20.7923C5.01482 20.8144 5.07705 20.8186 5.13636 20.8044L9.04972 19.8768C10.6927 20.6934 12.5721 20.9007 14.3536 20.4617C16.135 20.0227 17.7029 18.9659 18.7783 17.4793C19.8537 15.9928 20.3669 14.1729 20.2264 12.3436C20.086 10.5142 19.3011 8.794 18.0114 7.48903ZM16.7912 17.2277C15.8914 18.125 14.7327 18.7173 13.4784 18.9212C12.2241 19.125 10.9374 18.9302 9.79972 18.364L9.25426 18.0941L6.85511 18.6623L6.86222 18.6325L7.35938 16.2177L7.09233 15.6907C6.51102 14.5491 6.30596 13.2527 6.50652 11.9874C6.70707 10.7221 7.30296 9.55265 8.20881 8.6467C9.34703 7.50884 10.8906 6.86962 12.5 6.86962C14.1094 6.86962 15.653 7.50884 16.7912 8.6467C16.8009 8.65782 16.8113 8.66826 16.8224 8.67796C17.9466 9.81875 18.5741 11.3577 18.5682 12.9593C18.5624 14.5608 17.9236 16.0951 16.7912 17.2277Z" fill="white"/>
<path d="M16.5781 15.4555C16.284 15.9186 15.8196 16.4854 15.2357 16.626C14.213 16.8731 12.6434 16.6345 10.6903 14.8135L10.6661 14.7922C8.94882 13.1999 8.5028 11.8746 8.61075 10.8234C8.67041 10.2268 9.16757 9.68707 9.5866 9.3348C9.65285 9.27825 9.73141 9.238 9.816 9.21725C9.90059 9.1965 9.98886 9.19583 10.0738 9.21529C10.1586 9.23475 10.2378 9.27381 10.3049 9.32934C10.372 9.38487 10.4252 9.45533 10.4602 9.53508L11.0923 10.9555C11.1334 11.0476 11.1486 11.1492 11.1363 11.2493C11.1241 11.3494 11.0848 11.4443 11.0227 11.5237L10.7031 11.9385C10.6345 12.0241 10.5931 12.1283 10.5843 12.2377C10.5754 12.347 10.5995 12.4566 10.6534 12.5521C10.8323 12.866 11.2613 13.3277 11.7372 13.7552C12.2713 14.2382 12.8636 14.68 13.2386 14.8305C13.3389 14.8715 13.4493 14.8815 13.5553 14.8592C13.6614 14.837 13.7584 14.7834 13.8338 14.7055L14.2045 14.332C14.276 14.2614 14.365 14.2111 14.4623 14.1861C14.5596 14.1612 14.6618 14.1625 14.7585 14.1899L16.2599 14.616C16.3427 14.6414 16.4186 14.6855 16.4818 14.7447C16.545 14.8039 16.5939 14.8769 16.6246 14.9579C16.6553 15.0389 16.667 15.1258 16.659 15.2121C16.6509 15.2983 16.6233 15.3816 16.5781 15.4555Z" fill="white"/>
</g>
<defs>
<clipPath id="clip0_97_2885">
<rect width="25" height="25" fill="white" transform="translate(0 0.5)"/>
</clipPath>
</defs>
</svg>
