<svg width="25" height="26" viewBox="0 0 25 26" fill="none" xmlns="http://www.w3.org/2000/svg">
<g clip-path="url(#clip0_97_2892)">
<path d="M12.5 25.5C19.4036 25.5 25 19.9036 25 13C25 6.09644 19.4036 0.5 12.5 0.5C5.59644 0.5 0 6.09644 0 13C0 19.9036 5.59644 25.5 12.5 25.5Z" fill="#1C8ADB"/>
<path d="M19.3096 6.96302L19.0511 7.05677L5.01987 12.1122C4.92044 12.1429 4.83402 12.2058 4.77415 12.2909C4.71429 12.3761 4.68437 12.4787 4.68908 12.5826C4.69379 12.6866 4.73287 12.7861 4.80019 12.8655C4.8675 12.9448 4.95926 12.9996 5.06106 13.0213L8.69316 14.0156L9.37072 16.0042L10.0483 17.9928C10.0872 18.0903 10.1493 18.1768 10.2293 18.2449C10.3092 18.3129 10.4046 18.3604 10.507 18.3832C10.6095 18.406 10.716 18.4035 10.8172 18.3758C10.9185 18.3481 11.0114 18.2961 11.088 18.2244L12.9645 16.4517L16.6491 18.9502C17.0994 19.257 17.7415 19.0298 17.8565 18.5241L20.2969 7.74143C20.4162 7.20734 19.8537 6.76842 19.3096 6.96302ZM17.5184 9.35648L11.179 14.5383L10.8807 14.7826C10.8151 14.8346 10.7724 14.9099 10.7613 14.9928L10.6946 15.544L10.5113 17.0923C10.5129 17.1111 10.5068 17.1298 10.4946 17.1442C10.4823 17.1585 10.4648 17.1675 10.446 17.169C10.4272 17.1705 10.4085 17.1644 10.3941 17.1522C10.3797 17.1399 10.3708 17.1225 10.3693 17.1036L9.85367 15.5568L9.321 13.973C9.29848 13.9018 9.30147 13.8249 9.32947 13.7557C9.35747 13.6865 9.40872 13.6292 9.47441 13.5937L16.071 9.81245L17.3125 9.10222C17.4929 8.99711 17.6775 9.2258 17.5184 9.35648Z" fill="white"/>
</g>
<defs>
<clipPath id="clip0_97_2892">
<rect width="25" height="25" fill="white" transform="translate(0 0.5)"/>
</clipPath>
</defs>
</svg>
