<svg width="25" height="26" viewBox="0 0 25 26" fill="none" xmlns="http://www.w3.org/2000/svg">
<g clip-path="url(#clip0_97_2897)">
<path d="M12.5 25.5C19.4036 25.5 25 19.9036 25 13C25 6.09644 19.4036 0.5 12.5 0.5C5.59644 0.5 0 6.09644 0 13C0 19.9036 5.59644 25.5 12.5 25.5Z" fill="#4169E1"/>
<path d="M19.7045 17.8912C19.3409 17.9423 17.5625 17.8912 17.4701 17.8912C17.0104 17.8971 16.5669 17.7215 16.2358 17.4026C15.8608 17.0418 15.5255 16.644 15.159 16.2662C15.0507 16.1515 14.9333 16.0456 14.8082 15.9494C14.5156 15.7236 14.2258 15.7747 14.088 16.1199C13.9804 16.4929 13.9053 16.8745 13.8636 17.2605C13.8394 17.6099 13.6179 17.8287 13.2258 17.8528C12.9829 17.8656 12.74 17.8699 12.5 17.8642C11.6251 17.8586 10.764 17.6459 9.98717 17.2435C9.14665 16.7751 8.41433 16.1347 7.83802 15.3642C6.89058 14.154 6.13348 12.8244 5.45734 11.4537C5.42183 11.3855 4.72865 9.91108 4.7116 9.84148C4.6491 9.60852 4.7116 9.38551 4.90337 9.30881C5.02552 9.26193 7.30962 9.30881 7.34797 9.30881C7.51777 9.30734 7.68364 9.35995 7.82155 9.45904C7.95945 9.55813 8.06224 9.69854 8.11501 9.85995C8.53725 10.9411 9.11534 11.9546 9.83092 12.8685C9.93107 12.9907 10.0483 13.0978 10.1789 13.1866C10.365 13.3131 10.5411 13.269 10.6179 13.0545C10.7087 12.7569 10.7622 12.4492 10.7769 12.1384C10.7897 11.5219 10.7769 11.1156 10.7429 10.5006C10.7201 10.1057 10.5809 9.75909 9.99854 9.6483C9.81956 9.61705 9.80393 9.46932 9.91899 9.32159C10.159 9.01477 10.4872 8.96648 10.8551 8.94801C11.4034 8.91676 11.9517 8.93807 12.5 8.94801H12.6193C12.8579 8.94714 13.096 8.97142 13.3295 9.02046C13.4676 9.04838 13.5929 9.12016 13.6868 9.22511C13.7808 9.33005 13.8383 9.46255 13.8508 9.60284C13.8789 9.7584 13.8908 9.91643 13.8863 10.0744C13.8721 10.7477 13.8394 11.4196 13.8323 12.0929C13.8258 12.3595 13.8501 12.6259 13.9048 12.8869C13.9829 13.2449 14.2286 13.3344 14.473 13.0759C14.7893 12.7416 15.0795 12.3836 15.3409 12.0048C15.8031 11.3145 16.1843 10.5734 16.4772 9.79602C16.6363 9.39688 16.7613 9.30881 17.1875 9.30881H19.6108C19.7548 9.30628 19.8985 9.32543 20.0369 9.36563C20.0859 9.3785 20.1317 9.40135 20.1714 9.43274C20.2112 9.46413 20.244 9.50339 20.2679 9.54806C20.2917 9.59274 20.3061 9.64185 20.3101 9.69234C20.3141 9.74283 20.3077 9.7936 20.2912 9.84148C20.1718 10.3727 19.8849 10.8259 19.5809 11.2619C19.088 11.9608 18.5681 12.6412 18.0639 13.3287C18.0001 13.4199 17.9418 13.5147 17.8892 13.6128C17.6988 13.9551 17.713 14.1469 17.9886 14.4324C18.4289 14.8841 18.8991 15.3088 19.3238 15.7747C19.6357 16.1134 19.9171 16.4789 20.1647 16.867C20.4758 17.3486 20.284 17.8088 19.7045 17.8912Z" fill="white"/>
</g>
<defs>
<clipPath id="clip0_97_2897">
<rect width="25" height="25" fill="white" transform="translate(0 0.5)"/>
</clipPath>
</defs>
</svg>
