<svg width="25" height="26" viewBox="0 0 25 26" fill="none" xmlns="http://www.w3.org/2000/svg">
<g clip-path="url(#clip0_97_2902)">
<path d="M12.5 25.5C19.4036 25.5 25 19.9036 25 13C25 6.09644 19.4036 0.5 12.5 0.5C5.59644 0.5 0 6.09644 0 13C0 19.9036 5.59644 25.5 12.5 25.5Z" fill="#6F3FAA"/>
<path d="M19.7201 8.94424V8.92578C19.5525 8.2468 19.115 7.5451 18.5412 6.95419C17.8707 6.26101 17.017 5.71697 16.2017 5.54083H16.1846C13.7532 5.07493 11.2553 5.07493 8.82384 5.54083H8.8068C7.29259 5.86896 5.64913 7.45135 5.28265 8.92578V8.94424C4.83238 10.9884 4.83238 13.1061 5.28265 15.1502V15.1673C5.54401 16.2184 6.4531 17.3235 7.5014 17.9911C7.84375 18.2142 8.21641 18.3869 8.60793 18.5039V20.1488C8.60849 20.2802 8.64817 20.4086 8.72192 20.5174C8.79567 20.6262 8.90015 20.7106 9.02204 20.7598C9.14394 20.809 9.27772 20.8208 9.40635 20.7937C9.53498 20.7666 9.65263 20.7018 9.7443 20.6076L11.4119 18.8746C11.7727 18.8945 12.1363 18.9059 12.4971 18.9059C13.7322 18.9055 14.9645 18.7885 16.1775 18.5565H16.1946C17.7045 18.2269 19.3494 16.6445 19.713 15.1701V15.1531C20.1661 13.1085 20.1685 10.9898 19.7201 8.94424ZM18.4005 14.8462C18.1562 15.8079 16.9091 17.0053 15.9162 17.2255C14.6265 17.4725 13.314 17.5797 12.0014 17.5451C11.9886 17.5443 11.9758 17.5465 11.964 17.5514C11.9522 17.5563 11.9417 17.5639 11.9332 17.5735L10.7159 18.8235L9.42043 20.1516C9.39971 20.1735 9.37289 20.1887 9.34344 20.1952C9.31399 20.2017 9.28328 20.1992 9.25527 20.188C9.22726 20.1768 9.20326 20.1575 9.18636 20.1325C9.16946 20.1076 9.16045 20.0781 9.16049 20.0479V17.3207C9.16052 17.2987 9.15287 17.2775 9.13885 17.2606C9.12484 17.2437 9.10535 17.2323 9.08379 17.2283C8.87669 17.1792 8.67703 17.1027 8.49004 17.0011C7.64629 16.5508 6.79543 15.6275 6.59941 14.8462C6.19339 12.9985 6.19339 11.0846 6.59941 9.23686C6.84231 8.27947 8.09657 7.08487 9.08237 6.86328C11.3398 6.43134 13.6587 6.43134 15.9162 6.86328C16.463 6.98544 17.088 7.40163 17.5767 7.91299C17.9787 8.32919 18.2869 8.8093 18.4005 9.24112C18.8059 11.0875 18.8059 12.9999 18.4005 14.8462Z" fill="white"/>
<path d="M15.9517 14.9888C15.7672 15.4099 15.4499 15.7591 15.0483 15.9831C14.9223 16.0366 14.7915 16.0779 14.6577 16.1067C14.5057 16.0612 14.3608 16.03 14.2316 15.9746C13.1548 15.5556 12.1524 14.9661 11.2628 14.2288C10.9986 14.0035 10.7503 13.76 10.5199 13.5001C9.95093 12.8449 9.47312 12.1158 9.09945 11.3325C8.91763 10.9618 8.76423 10.5783 8.60798 10.1962C8.46593 9.84815 8.67616 9.48593 8.89207 9.22599C9.10341 8.98492 9.36336 8.79128 9.65485 8.65781C9.75742 8.60626 9.8748 8.59224 9.98663 8.61819C10.0985 8.64413 10.1977 8.70841 10.2671 8.79985C10.63 9.20761 10.9499 9.65172 11.2216 10.1251C11.3072 10.2628 11.3365 10.4281 11.3035 10.5868C11.2704 10.7455 11.1775 10.8854 11.0441 10.9774C10.973 11.0271 10.902 11.0839 10.8409 11.1393C10.7807 11.1839 10.7288 11.2387 10.6875 11.3013C10.6519 11.3598 10.6303 11.4258 10.6244 11.494C10.6185 11.5623 10.6284 11.631 10.6534 11.6947C10.9276 12.449 11.3438 13.0783 11.9659 13.52C12.1765 13.6689 12.4033 13.7933 12.6421 13.8908C12.798 13.9756 12.9731 14.0186 13.1506 14.0158C13.4602 13.9788 13.5625 13.6365 13.7784 13.4604C13.8775 13.3792 14.0002 13.3322 14.1281 13.3263C14.2561 13.3204 14.3825 13.356 14.4887 13.4277C14.7188 13.5697 14.9404 13.7303 15.162 13.8865C15.3811 14.0361 15.5921 14.1973 15.7941 14.3695C15.8885 14.4381 15.956 14.5375 15.9847 14.6506C16.0135 14.7638 16.0019 14.8834 15.9517 14.9888Z" fill="white"/>
<path d="M12.9076 8.18095H12.7258C12.7841 8.17811 12.8451 8.18095 12.9076 8.18095Z" fill="white"/>
<path d="M16.0511 12.4379C15.9091 12.4379 15.8395 12.3172 15.8295 12.1851C15.8111 11.9251 15.7969 11.6638 15.7613 11.4052C15.7 10.9691 15.548 10.5505 15.3153 10.1765C15.0761 9.78693 14.7579 9.45186 14.3811 9.19299C14.0042 8.93412 13.5773 8.75721 13.1278 8.6737C12.9233 8.63677 12.7145 8.62825 12.5085 8.60694C12.3778 8.59274 12.206 8.58421 12.1775 8.42228C12.1733 8.39083 12.1758 8.35884 12.1849 8.32844C12.194 8.29804 12.2095 8.26993 12.2304 8.246C12.2512 8.22206 12.2769 8.20286 12.3058 8.18965C12.3346 8.17645 12.366 8.16956 12.3977 8.16944C12.4318 8.16748 12.4659 8.16748 12.5 8.16944C13.1209 8.17469 13.7309 8.333 14.276 8.63032C14.8211 8.92764 15.2844 9.35481 15.625 9.87399C15.8938 10.2925 16.0764 10.7604 16.1619 11.2504C16.2159 11.5572 16.2358 11.8726 16.2599 12.1851C16.2648 12.2157 16.2631 12.247 16.2549 12.2769C16.2467 12.3068 16.2323 12.3347 16.2125 12.3586C16.1928 12.3825 16.1682 12.4019 16.1404 12.4156C16.1125 12.4293 16.0821 12.4369 16.0511 12.4379Z" fill="white"/>
<path d="M15.2826 11.7751C15.2818 11.8173 15.2761 11.8592 15.2655 11.9001C15.2531 11.9412 15.2284 11.9774 15.1947 12.0039C15.1609 12.0304 15.1198 12.0459 15.077 12.0482C15.0342 12.0505 14.9916 12.0396 14.9552 12.0169C14.9188 11.9942 14.8903 11.9609 14.8735 11.9214C14.8579 11.8641 14.8507 11.8047 14.8522 11.7453C14.8555 11.4276 14.7926 11.1126 14.6675 10.8206C14.6391 10.7581 14.6079 10.6941 14.5724 10.6331C14.369 10.2826 14.0673 9.99957 13.7045 9.81914C13.4856 9.7158 13.2532 9.64406 13.0141 9.60607C12.909 9.58903 12.8039 9.57908 12.6988 9.56488C12.6714 9.5635 12.6446 9.55653 12.6201 9.54439C12.5955 9.53226 12.5737 9.51521 12.556 9.4943C12.5383 9.4734 12.5251 9.44909 12.5171 9.42287C12.5092 9.39665 12.5067 9.36908 12.5099 9.34187C12.5099 9.31403 12.5158 9.28651 12.5272 9.26111C12.5386 9.23572 12.5552 9.21302 12.576 9.19451C12.5968 9.176 12.6213 9.16209 12.6478 9.15371C12.6744 9.14532 12.7024 9.14264 12.73 9.14584C13.1471 9.16194 13.5557 9.26857 13.9275 9.45834C14.3815 9.68679 14.7518 10.0526 14.9857 10.5038C15.1175 10.7672 15.2057 11.0502 15.2471 11.3419C15.2547 11.3799 15.2604 11.4183 15.2641 11.4569C15.2712 11.5422 15.2741 11.6274 15.2812 11.7325C15.2812 11.7424 15.2826 11.7552 15.2826 11.7751Z" fill="white"/>
<path d="M14.3096 11.5787C14.3016 11.6147 14.283 11.6475 14.2561 11.6728C14.2293 11.6981 14.1955 11.7148 14.1591 11.7207H14.1278C14.0813 11.7237 14.035 11.7115 13.9961 11.6859C13.9571 11.6602 13.9276 11.6226 13.9119 11.5787C13.9031 11.5554 13.8973 11.531 13.8949 11.5062C13.8874 11.4107 13.8732 11.3157 13.8523 11.2222C13.81 11.0327 13.7024 10.8642 13.5483 10.7463C13.4738 10.6928 13.3907 10.6524 13.3025 10.627C13.1903 10.5943 13.0724 10.6028 12.9616 10.5758C12.9069 10.5661 12.8582 10.5351 12.8262 10.4896C12.7943 10.4441 12.7817 10.3877 12.7912 10.3329C12.8017 10.2805 12.8311 10.2336 12.8737 10.2012C12.9163 10.1688 12.9693 10.153 13.0227 10.1568C13.6733 10.2037 14.1591 10.5162 14.2841 11.2136C14.2969 11.2784 14.3059 11.3438 14.3111 11.4097C14.319 11.4658 14.3185 11.5227 14.3096 11.5787Z" fill="white"/>
</g>
<defs>
<clipPath id="clip0_97_2902">
<rect width="25" height="25" fill="white" transform="translate(0 0.5)"/>
</clipPath>
</defs>
</svg>
