<svg width="40" height="40" viewBox="0 0 40 40" fill="none" xmlns="http://www.w3.org/2000/svg">
<circle cx="20" cy="20" r="20" fill="#7FC67D"/>
<g clip-path="url(#clip0_97_3202)">
<path d="M16.9059 10H12.3128C11.0375 10 10 11.0375 10 12.3128V16.9059C10 18.1812 11.0375 19.2188 12.3128 19.2188H16.9059C18.1812 19.2188 19.2188 18.1812 19.2188 16.9059V12.3128C19.2188 11.0375 18.1812 10 16.9059 10ZM17.6562 16.9059C17.6562 17.3196 17.3196 17.6562 16.9059 17.6562H12.3128C11.8991 17.6562 11.5625 17.3196 11.5625 16.9059V12.3128C11.5625 11.8991 11.8991 11.5625 12.3128 11.5625H16.9059C17.3196 11.5625 17.6562 11.8991 17.6562 12.3128V16.9059Z" fill="white"/>
<path d="M27.6562 10H23.125C21.8327 10 20.7812 11.0514 20.7812 12.3438V16.875C20.7812 18.1673 21.8327 19.2188 23.125 19.2188H27.6562C28.9486 19.2188 30 18.1673 30 16.875V12.3438C30 11.0514 28.9486 10 27.6562 10ZM28.4375 16.875C28.4375 17.3058 28.087 17.6562 27.6562 17.6562H23.125C22.6942 17.6562 22.3438 17.3058 22.3438 16.875V12.3438C22.3438 11.913 22.6942 11.5625 23.125 11.5625H27.6562C28.087 11.5625 28.4375 11.913 28.4375 12.3438V16.875Z" fill="white"/>
<path d="M16.9059 20.7812H12.3128C11.0375 20.7812 10 21.8188 10 23.0941V27.6872C10 28.9625 11.0375 30 12.3128 30H16.9059C18.1812 30 19.2188 28.9625 19.2188 27.6872V23.0941C19.2188 21.8188 18.1812 20.7812 16.9059 20.7812ZM17.6562 27.6872C17.6562 28.1009 17.3196 28.4375 16.9059 28.4375H12.3128C11.8991 28.4375 11.5625 28.1009 11.5625 27.6872V23.0941C11.5625 22.6804 11.8991 22.3438 12.3128 22.3438H16.9059C17.3196 22.3438 17.6562 22.6804 17.6562 23.0941V27.6872Z" fill="white"/>
<path d="M27.6562 20.7812H23.125C21.8327 20.7812 20.7812 21.8327 20.7812 23.125V27.6562C20.7812 28.9486 21.8327 30 23.125 30H27.6562C28.9486 30 30 28.9486 30 27.6562V23.125C30 21.8327 28.9486 20.7812 27.6562 20.7812ZM28.4375 27.6562C28.4375 28.087 28.087 28.4375 27.6562 28.4375H23.125C22.6942 28.4375 22.3438 28.087 22.3438 27.6562V23.125C22.3438 22.6942 22.6942 22.3438 23.125 22.3438H27.6562C28.087 22.3438 28.4375 22.6942 28.4375 23.125V27.6562Z" fill="white"/>
</g>
<defs>
<clipPath id="clip0_97_3202">
<rect width="20" height="20" fill="white" transform="translate(10 10)"/>
</clipPath>
</defs>
</svg>
