<svg width="40" height="40" viewBox="0 0 40 40" fill="none" xmlns="http://www.w3.org/2000/svg">
<circle cx="20" cy="20" r="20" fill="#7FC67D"/>
<g clip-path="url(#clip0_97_3197)">
<path d="M28.7719 24.125C28.7206 24.0844 25 21.4025 23.9787 21.595C23.4912 21.6812 23.2125 22.0138 22.6531 22.6794C22.5631 22.7869 22.3469 23.0444 22.1788 23.2275C21.8252 23.1122 21.4804 22.9718 21.1469 22.8075C19.4253 21.9694 18.0344 20.5784 17.1962 18.8569C17.0318 18.5234 16.8914 18.1785 16.7762 17.825C16.96 17.6563 17.2175 17.44 17.3275 17.3475C17.99 16.7912 18.3231 16.5125 18.4094 16.0237C18.5862 15.0112 15.9062 11.265 15.8781 11.2313C15.7565 11.0575 15.5978 10.913 15.4135 10.8082C15.2292 10.7033 15.0239 10.6408 14.8125 10.625C13.7262 10.625 10.625 14.6481 10.625 15.3256C10.625 15.365 10.6819 19.3675 15.6175 24.3881C20.6331 29.3181 24.635 29.375 24.6744 29.375C25.3525 29.375 29.375 26.2737 29.375 25.1875C29.3594 24.9768 29.2972 24.7722 29.1929 24.5884C29.0886 24.4047 28.9448 24.2464 28.7719 24.125Z" fill="white"/>
</g>
<defs>
<clipPath id="clip0_97_3197">
<rect width="20" height="20" fill="white" transform="translate(10 10)"/>
</clipPath>
</defs>
</svg>
