<svg width="18" height="14" viewBox="0 0 18 14" fill="none" xmlns="http://www.w3.org/2000/svg">
<path d="M10.5048 9.26805C10.057 9.56659 9.5368 9.72441 9.00049 9.72441C8.46421 9.72441 7.94404 9.56659 7.49622 9.26805L0.120336 4.35063C0.079414 4.32335 0.0395469 4.29491 0.000488281 4.26566V12.3234C0.000488281 13.2472 0.750195 13.9804 1.65751 13.9804H16.3434C17.2673 13.9804 18.0005 13.2307 18.0005 12.3234V4.26562C17.9613 4.29495 17.9214 4.32346 17.8804 4.35077L10.5048 9.26805Z" fill="#FF7A00"/>
<path d="M0.705371 3.47394L8.08126 8.39139C8.36047 8.57754 8.68046 8.6706 9.00045 8.6706C9.32048 8.6706 9.64051 8.5775 9.91972 8.39139L17.2956 3.47394C17.737 3.17986 18.0005 2.68767 18.0005 2.15646C18.0005 1.24306 17.2574 0.5 16.344 0.5H1.65695C0.743586 0.500035 0.000488281 1.2431 0.000488281 2.15734C0.000488281 2.68767 0.26402 3.17986 0.705371 3.47394Z" fill="#FF7A00"/>
</svg>
